<?xml version="1.0" encoding="UTF-8" standalone="no"?>
<svg
   xml:space="preserve"
   width="529.9035"
   height="249.62308"
   version="1.1"
   id="svg58"
   sodipodi:docname="Faravahar-Gold.svg"
   inkscape:version="1.2.2 (b0a8486541, 2022-12-01)"
   xmlns:inkscape="http://www.inkscape.org/namespaces/inkscape"
   xmlns:sodipodi="http://sodipodi.sourceforge.net/DTD/sodipodi-0.dtd"
   xmlns="http://www.w3.org/2000/svg"
   xmlns:svg="http://www.w3.org/2000/svg"><defs
   id="defs62" /><sodipodi:namedview
   id="namedview60"
   pagecolor="#ffffff"
   bordercolor="#000000"
   borderopacity="0.25"
   inkscape:showpageshadow="2"
   inkscape:pageopacity="0.0"
   inkscape:pagecheckerboard="0"
   inkscape:deskcolor="#d1d1d1"
   showgrid="false"
   inkscape:zoom="0.94542541"
   inkscape:cx="96.252966"
   inkscape:cy="125.3404"
   inkscape:window-width="1854"
   inkscape:window-height="1131"
   inkscape:window-x="66"
   inkscape:window-y="32"
   inkscape:window-maximized="1"
   inkscape:current-layer="svg58" />
  <path
   fill="#a99a6f"
   d="m 214.14141,60.88612 c -0.73465,-0.275495 -1.65297,-0.55099 -2.11212,0.183664 -0.45916,0.642821 0.27549,1.377474 1.28564,1.928464 -0.64282,-0.09183 -1.01015,-0.275495 -1.28564,0.275495 -0.45916,0.826485 1.10197,2.020297 1.92846,2.387624 -0.64282,-0.367327 -1.37748,-0.459159 -1.56114,0.183663 -0.27549,1.010148 3.58144,3.30594 5.96906,4.683415 1.10198,1.010148 4.40792,2.203959 6.15272,2.571286 0.45916,0.09183 2.38762,0.09183 4.13243,0.642822 0.18366,-1.285644 0.36732,-2.387624 0.55099,-3.85693 0.0918,-0.918317 0.18366,-1.836633 0.27549,-2.663118 -0.82648,-0.918317 -1.65297,-1.836633 -2.20396,-2.75495 0,-0.09183 -0.0918,-0.09183 -0.0918,-0.183663 l -0.18366,-0.183664 -0.0918,-0.09183 -0.55099,-0.55099 c -0.18366,-0.183664 -1.56113,-1.469307 -2.84678,-1.744802 -1.19381,-0.275495 -2.29579,0 -2.29579,0 -0.82648,-0.275495 -2.93861,-1.285643 -4.31609,-1.928465 0,0 -2.29579,-1.010148 -2.84678,-0.459158 -0.45916,0.459158 -0.55099,1.010148 0.0918,1.561138 z m 54.08885,143.07372 h 0.36733 c 1.01015,-0.0918 1.83663,-0.73465 2.66312,-1.7448 0,-0.0918 0.0918,-0.0918 0.0918,-0.18366 l -2.29579,-27.09034 c -1.10198,0.18366 -2.20396,0.18366 -3.30594,0.27549 v 5.5099 c 0,8.54035 0.0918,17.53985 0.0918,21.94777 0.64282,0.73465 1.4693,1.19381 2.38762,1.28564 z M 259.78175,65.477703 c 0.45916,0.183664 1.01015,0.275495 1.37747,0.275495 0.36733,0 0.64282,-0.09183 0.73466,-0.367326 0.55099,-0.918317 9.45866,-15.060393 14.14207,-18.182669 -0.64282,-1.285643 -1.10198,-2.75495 -1.7448,-4.683415 -0.0918,-0.275495 -0.18366,-0.459158 -0.18366,-0.734653 -0.36733,1.836633 -1.65297,3.489603 -4.95891,3.85693 -1.10198,-0.09183 -3.39777,-2.112128 -5.41807,-2.938613 -0.18366,0.642821 -0.45916,1.285643 -0.45916,1.928464 0.2755,0.09183 0.55099,0.275495 0.82649,0.367327 0,0.275495 0.0918,0.55099 0.0918,0.826485 h -0.91832 c -2.47945,9.642324 -4.95891,15.886877 -5.2344,17.72351 -0.0918,0.642822 -0.0918,0.918317 0.0918,1.010149 0.45916,0.459158 0.82648,0.55099 1.65297,0.918316 z m 6.42821,152.165057 c 0.45916,0.45916 1.01015,0.73465 1.56114,0.91832 0.64282,0 1.28565,0 1.92847,-0.0918 0.82648,-0.2755 1.56114,-0.82649 2.20396,-1.56114 l -0.91832,-11.0198 c -0.64282,0.36733 -1.28564,0.55099 -2.0203,0.64282 -0.27549,0 -0.55099,0.0918 -0.73465,0.0918 h -0.0918 c -0.64282,0 -1.28564,-0.18366 -1.92847,-0.36732 z M 220.75329,99.455422 h 1.83664 c 0.0918,0 0.27549,0 0.36732,-0.0918 0.0918,0 0.2755,0 0.36733,-0.0918 0.0918,0 0.27549,-0.0918 0.36733,-0.0918 0.0918,0 0.27549,-0.0918 0.36732,-0.0918 0.0918,0 0.2755,-0.0918 0.36733,-0.0918 0.0918,0 0.27549,-0.0918 0.36733,-0.0918 0.0918,0 0.27549,-0.0918 0.36732,-0.0918 0.0918,0 0.18367,-0.0918 0.36733,-0.0918 0.0918,-0.0918 0.18366,-0.0918 0.36733,-0.18366 0.0918,-0.0918 0.18366,-0.0918 0.36732,-0.18366 0.0918,-0.0918 0.18367,-0.0918 0.36733,-0.18367 0.0918,-0.0918 0.18366,-0.0918 0.27549,-0.18366 0.0918,-0.0918 0.18367,-0.0918 0.2755,-0.18366 0.0918,-0.0918 0.18366,-0.0918 0.27549,-0.18367 0.0918,-0.0918 0.18367,-0.18366 0.2755,-0.18366 0.0918,-0.0918 0.18366,-0.18366 0.27549,-0.18366 l 0.2755,-0.2755 0.27549,-0.27549 0.2755,-0.2755 0.27549,-0.27549 0.2755,-0.2755 0.27549,-0.27549 0.2755,-0.2755 c 0.0918,-0.0918 0.18366,-0.18366 0.18366,-0.27549 0.0918,-0.0918 0.18367,-0.2755 0.2755,-0.36733 0,-0.0918 0.0918,-0.0918 0.0918,-0.18366 0,0 -1.46931,-0.18367 -2.47946,-0.18367 -1.01014,0 -1.7448,0.18367 -1.92846,0.2755 l -0.18366,0.18366 c -0.0918,0.0918 -0.18367,0.18366 -0.36733,0.2755 -0.0918,0.0918 -0.18366,0.0918 -0.2755,0.18366 -0.0918,0.0918 -0.27549,0.0918 -0.36732,0.18366 -0.0918,0.0918 -0.18367,0.0918 -0.2755,0.18367 -0.0918,0.0918 -0.27549,0.0918 -0.36732,0.18366 -0.0918,0 -0.18367,0.0918 -0.2755,0.0918 -0.0918,0.0918 -0.27549,0.0918 -0.36733,0.0918 -0.0918,0 -0.18366,0.0918 -0.27549,0.0918 -0.0918,0 -0.2755,0.0918 -0.36733,0.0918 -0.0918,0 -0.18366,0.0918 -0.36732,0.0918 -0.0918,0 -0.2755,0 -0.36733,0.0918 h -1.37748 c -4.31608,-0.18366 -7.62202,-3.7651 -7.43836,-8.081187 0,-0.275495 0,-0.55099 0.0918,-0.826485 v -0.183663 c 0,-0.183664 0.0918,-0.367327 0.0918,-0.55099 0,-0.09183 0,-0.183664 0.0918,-0.183664 0.0918,-0.183663 0.0918,-0.367326 0.18367,-0.55099 0,-0.09183 0.0918,-0.183663 0.0918,-0.183663 0.0918,-0.183663 0.0918,-0.275495 0.18366,-0.459158 0,-0.09183 0.0918,-0.183664 0.0918,-0.275495 0.0918,-0.183664 0.18367,-0.275495 0.18367,-0.459159 0,-0.09183 0.0918,-0.183663 0.18366,-0.183663 0.0918,-0.09183 0.18366,-0.275495 0.2755,-0.367326 0.0918,-0.09183 0.0918,-0.183664 0.18366,-0.183664 0.0918,-0.09183 0.18366,-0.275495 0.27549,-0.367326 l 0.18367,-0.183664 0.36732,-0.367326 c 0.0918,-0.09183 0.18367,-0.09183 0.18367,-0.183664 0.0918,-0.09183 0.27549,-0.183663 0.36732,-0.275495 0.0918,-0.09183 0.18367,-0.09183 0.18367,-0.183663 0.0918,-0.09183 0.27549,-0.183663 0.36732,-0.275495 0.0918,-0.09183 0.18367,-0.09183 0.2755,-0.183663 0.0918,-0.09183 0.27549,-0.183664 0.36733,-0.183664 0.0918,0 0.18366,-0.09183 0.27549,-0.09183 0.18366,-0.09183 0.2755,-0.09183 0.45916,-0.183664 0.0918,0 0.18366,-0.09183 0.27549,-0.09183 0.18367,-0.09183 0.2755,-0.09183 0.45916,-0.183664 0.0918,0 0.18367,-0.09183 0.2755,-0.09183 0.18366,0 0.27549,-0.09183 0.45916,-0.09183 h 0.27549 c 0.18366,0 0.2755,0 0.45916,-0.09183 h 0.82648 c 2.47946,0.09183 4.59159,1.285644 5.96906,3.122277 1.19381,0.09183 2.84678,0.367327 4.13243,0.918316 -1.46931,-4.132424 -5.32624,-7.162869 -9.91782,-7.346532 h -1.28565 c -0.18366,0 -0.45915,0 -0.64282,0.09183 -0.18366,0 -0.27549,0 -0.45916,0.09183 -0.18366,0 -0.45915,0.09183 -0.64282,0.09183 -0.18366,0 -0.27549,0.09183 -0.45916,0.09183 -0.18366,0.09183 -0.36732,0.09183 -0.64282,0.183664 -0.0918,0.09183 -0.27549,0.09183 -0.36732,0.183663 l -0.55099,0.275495 c -0.0918,0.09183 -0.2755,0.09183 -0.36733,0.183663 l -0.55099,0.275495 c -0.0918,0.09183 -0.2755,0.183664 -0.36733,0.183664 -0.18366,0.09183 -0.36732,0.183663 -0.45916,0.367326 -0.0918,0.09183 -0.27549,0.183664 -0.36732,0.275495 -0.18367,0.09183 -0.2755,0.275495 -0.45916,0.367327 -0.0918,0.09183 -0.18366,0.183663 -0.36733,0.275495 l -0.45916,0.459158 -0.27549,0.275495 c -0.0918,0.183663 -0.2755,0.275495 -0.36733,0.459158 -0.0918,0.09183 -0.18366,0.183664 -0.27549,0.367327 -0.0918,0.183663 -0.18366,0.367327 -0.36733,0.55099 -0.0918,0.09183 -0.18366,0.275495 -0.27549,0.367327 l -0.2755,0.55099 c -0.0918,0.09183 -0.18366,0.275495 -0.18366,0.367326 l -0.2755,0.55099 c -0.0918,0.09183 -0.0918,0.275495 -0.18366,0.367327 -0.0918,0.183663 -0.0918,0.459158 -0.18366,0.642821 0,0.09183 -0.0918,0.275495 -0.0918,0.367327 -0.0918,0.275495 -0.0918,0.459158 -0.18367,0.734653 0,0.09183 0,0.183664 -0.0918,0.367327 -0.0918,0.367327 -0.0918,0.734653 -0.0918,1.10198 0,6.152721 4.68341,11.295291 10.7443,11.478961 z m 81.54652,111.667288 c 0.36732,0 0.82648,-0.0918 1.19381,-0.18366 0.73465,-0.27549 1.37747,-0.82648 1.92846,-1.46931 l -3.58143,-11.47895 c -0.64282,0.64282 -1.37748,1.19381 -2.20396,1.56113 h -0.18366 c -0.64283,0.18367 -1.28565,0.36733 -1.92847,0.36733 h -0.0918 l 3.4896,10.83614 c 0.2755,0.18366 0.82649,0.36732 1.37748,0.36732 z m -8.99951,-9.18316 c -0.36732,0.0918 -0.73465,0.0918 -1.10198,0.0918 h -0.18366 c -0.36733,0 -0.82648,-0.0918 -1.19381,-0.18366 l 2.84678,10.56064 c 0.82649,0.64282 1.7448,1.10198 2.57129,1.10198 0.18366,0 0.36732,0 0.55099,-0.0918 1.01015,-0.18367 1.83663,-0.82649 2.47945,-1.74481 l -3.4896,-11.0198 c -0.64282,0.64283 -1.56114,1.10198 -2.47946,1.28565 z m -81.17918,-75.57746 h 21.94776 c -1.65297,3.94876 -2.66311,8.35668 -2.66311,12.94827 0,18.2745 14.87672,33.15122 33.15122,33.15122 18.2745,0 33.15123,-14.87672 33.15123,-33.15122 0,-4.59159 -0.91831,-8.99951 -2.66311,-12.94827 h 20.20296 c 39.48761,0 46.09949,-20.93762 46.09949,-20.93762 H 282.556 c -0.36733,0 -0.64282,0 -1.01015,0.0918 0.64282,-8.081178 1.28564,-16.070534 1.65297,-23.141571 -1.56114,6.703711 -3.58143,13.499253 -4.77524,19.192811 -2.84679,13.59109 -13.3156,44.81385 -13.3156,44.81385 -0.73465,2.57129 -1.56113,3.94876 -3.03044,4.0406 -1.83663,-0.0918 -3.30594,-2.38763 -5.05074,-5.7854 -1.65297,-3.4896 -3.4896,-8.17302 -5.32624,-13.40742 -1.10198,-3.03045 -2.20396,-6.24455 -3.21411,-9.55049 l -0.27549,2.47945 c -1.10198,11.93812 -1.83663,22.59059 -2.66312,29.2943 4.13243,5.96906 11.11163,9.91782 19.00915,9.91782 7.71386,0 14.50941,-3.7651 18.73366,-9.45866 -0.0918,-0.64282 -0.18366,-1.37748 -0.27549,-2.0203 0,-0.0918 0,-0.27549 -0.0918,-0.36732 -0.18367,-1.56114 -0.45916,-3.03045 -0.64283,-4.49975 0,-0.18367 0,-0.2755 -0.0918,-0.45916 -0.18366,-1.46931 -0.36732,-2.93862 -0.45916,-4.31609 v -0.36733 c -0.18366,-1.4693 -0.27549,-2.84678 -0.36732,-4.22425 v -0.0918 c 0,-0.27549 0,-0.55099 -0.0918,-0.82648 v -0.18366 c -0.55099,-6.70372 -0.64283,-12.85644 -0.45916,-18.64183 5.14257,3.94876 8.81584,9.64232 10.00965,16.2542 0,0.0918 0,0.18367 0.0918,0.18367 0.0918,0.45915 0.18366,1.01014 0.18366,1.4693 v 0.0918 c 0.0918,0.45916 0.0918,0.82649 0.0918,1.28565 v 0.36732 c 0,0.55099 0.0918,1.10198 0.0918,1.65297 v 1.74481 c 0,0.27549 0,0.55099 -0.0918,0.82648 0,0.18366 0,0.36733 -0.0918,0.45916 0,0.27549 -0.0918,0.55099 -0.0918,0.73465 0,0.18367 -0.0918,0.36733 -0.0918,0.45916 -1.46931,13.13193 -12.7646,23.32524 -26.35569,23.32524 -13.86658,0 -25.34553,-10.65247 -26.44751,-24.24356 -0.18367,-1.10198 -0.2755,-2.29579 -0.2755,-3.4896 0,-8.17302 3.67327,-15.51955 9.55049,-20.38663 -1.56113,-4.77524 -3.2141,-9.45866 -4.68341,-13.40742 h -76.67944 c 0,0.18366 6.61188,21.12128 46.0995,21.12128 z m 46.74231,-46.742311 c 0,0 8.72401,-26.998508 18.45817,-26.998508 0.36732,0 0.73465,0 1.10198,0.09183 0.45915,0.09183 2.20395,0.918316 2.57128,1.010148 l 0.18366,-1.10198 c -1.01014,-0.734653 -3.58143,-2.387623 -4.22425,-3.85693 -4.22426,2.938613 -11.66262,14.142076 -14.14208,18.2745 -0.18366,0.367327 -0.73465,0.918317 -1.83663,0.918317 -0.64282,0 -1.28564,-0.183663 -1.92847,-0.459158 -0.91831,2.295791 -1.83663,8.356681 -2.57128,11.019799 -5.5099,-2.112128 -22.13143,-10.376978 -25.62103,-11.754453 -0.2755,2.938614 -0.64283,6.428217 -1.19382,8.540345 0,2.75495 8.26485,8.081186 8.54035,11.387126 z m 33.88588,-62.078202 -2.11212,1.10198 -0.82649,-2.295792 -2.47945,1.193812 -1.37748,-2.295792 -2.29579,1.193812 -1.10198,-2.020297 -2.11213,1.010149 -1.10198,-1.836634 -2.11213,1.010149 -1.19381,-2.20396 -2.11213,1.010148 -1.10198,-2.020296 -2.29579,1.10198 -1.37747,-2.295792 -2.38763,12.213611 20.5703,5.877226 z m -5.78539,11.570789 -20.2948,-5.877226 -0.55099,1.744801 20.20297,5.969058 z m -22.0396,2.571286 c 0,0 5.5099,1.561139 8.90767,5.601732 h -0.0918 c 0,0 0.0918,0.367326 0.2755,1.010148 0.27549,0.826485 0.64282,2.387623 1.19381,4.040593 0.55099,1.836633 2.02029,4.95891 2.02029,4.867078 0.36733,1.193812 1.46931,2.387623 1.46931,2.387623 1.10198,1.10198 2.47945,1.561138 4.49975,2.20396 h 0.0918 c 0.0918,0 0.18367,0 0.2755,0.09183 h 0.82648 c 0.0918,0 0.0918,0 0.18367,-0.09183 0.0918,0 0.0918,0 0.18366,-0.09183 0.0918,-0.09183 0.0918,-0.09183 0.18366,-0.09183 0.0918,0 0.0918,-0.09183 0.18367,-0.09183 0.0918,0 0.0918,-0.09183 0.18366,-0.09183 0.0918,0 0.0918,-0.09183 0.18366,-0.09183 0.0918,0 0.0918,-0.09183 0.18367,-0.09183 0.0918,0 0.0918,-0.09183 0.18366,-0.09183 0.0918,0 0.0918,-0.09183 0.18366,-0.183663 l 0.18367,-0.183663 0.18366,-0.183664 0.18366,-0.183663 0.18367,-0.183663 0.18366,-0.183664 0.18366,-0.183663 0.18367,-0.183663 0.18366,-0.183664 c 0.0918,-0.09183 0.0918,-0.183663 0.18366,-0.183663 0.0918,-0.09183 0.0918,-0.183663 0.18367,-0.183663 0.0918,-0.09183 0.0918,-0.183664 0.18366,-0.275495 0.0918,-0.09183 0.0918,-0.183664 0.18366,-0.183664 0.0918,-0.183663 0.18367,-0.275494 0.2755,-0.459158 0.0918,-0.09183 0.0918,-0.183663 0.18366,-0.275495 0.0918,-0.09183 0.0918,-0.183663 0.18366,-0.275495 0,-0.09183 0.0918,-0.183663 0.0918,-0.275495 0,-0.09183 0.0918,-0.183663 0.0918,-0.275495 0,-0.09183 0.0918,-0.183663 0.0918,-0.275495 0,-0.09183 0.0918,-0.183663 0.0918,-0.275495 0,-0.09183 0.0918,-0.183663 0.0918,-0.275495 0,-0.09183 0.0918,-0.183663 0.0918,-0.275495 0,-0.09183 0.0918,-0.183663 0.0918,-0.275495 0,-0.09183 0.0918,-0.183663 0.0918,-0.275495 0,-0.09183 0.0918,-0.183663 0.0918,-0.275495 0,-0.09183 0.0918,-0.183663 0.0918,-0.275495 0,-0.09183 0.0918,-0.183663 0.0918,-0.275495 0,-0.09183 0.0918,-0.183663 0.0918,-0.275495 0,-0.09183 0.0918,-0.183663 0.0918,-0.275495 0,-0.09183 0,-0.183663 0.0918,-0.275494 0,-0.09183 0,-0.183664 0.0918,-0.275495 v -2.295792 c -0.0918,-0.734653 -0.2755,-1.285643 -0.73465,-1.836633 -2.66312,-3.397772 -2.38763,-4.591583 -3.94877,-7.438365 -0.0918,-0.183663 -0.18366,-0.275495 -0.27549,-0.459158 l -19.28465,-5.234405 h -0.27549 c -0.45916,0.367327 -1.92847,-0.09183 -2.20396,3.581435 0,0.459159 0.27549,0.918317 0.73465,1.285643 0.27549,0.367327 0.45916,0.459159 0.64282,0.55099 z m 168.60293,90.821508 c 2.20396,-0.18366 4.86708,-1.10198 5.87722,-3.39777 0.91832,-2.0203 -0.45915,-3.30594 -2.29579,-4.04059 l -75.11829,-4.86708 c -0.36733,0.55099 -0.73466,1.10198 -1.19382,1.7448 z M 276.95427,101.38388 c 0.73465,-3.397768 1.65297,-7.162868 2.66312,-11.019798 3.2141,-12.489105 6.88737,-26.723012 3.03044,-33.059396 -1.01015,-1.65297 -2.57129,-2.663119 -4.68341,-3.122277 -0.2755,-0.09183 -0.55099,-0.09183 -0.82649,-0.09183 -7.07104,0 -14.7849,18.825491 -17.08069,26.080192 -0.0918,0.459158 -0.45916,0.734653 -0.91831,0.918316 l -21.39678,7.346533 c -0.18366,0.55099 -0.73465,4.867072 10.7443,24.33539 3.94877,6.70371 6.52005,10.28514 8.44852,12.94826 2.57128,3.58143 4.13242,5.78539 6.33638,11.66262 0.64282,1.65297 1.01015,3.39777 1.28564,5.05074 3.58144,-10.10148 9.91782,-29.2943 12.39728,-41.04875 z m -40.03861,-13.040093 -0.27549,-0.275495 c -1.46931,-0.275495 -3.39777,-1.65297 -4.77525,-2.295792 -1.10198,-0.55099 -4.68341,-1.377475 -6.06089,-0.918317 -0.91831,0.367327 -2.02029,0.55099 -2.20396,2.75495 -0.0918,1.65297 0.18367,2.938609 0.18367,3.948759 0,0.36733 1.19381,1.7448 1.7448,2.29579 4.86708,-1.56113 10.19331,2.57129 12.94826,2.0203 -1.19381,-1.83663 -2.75495,-7.071037 -1.56114,-7.530195 z m 10.56065,25.070043 c -0.82649,-1.28565 -1.46931,-2.57129 -2.20396,-3.7651 4.13242,11.75445 8.724,26.81484 12.58093,34.71237 1.65297,3.39777 3.30594,5.41806 4.13243,5.2344 0.45916,0.0918 1.19381,-0.64282 1.83663,-2.57128 -0.0918,-2.2958 -0.55099,-6.06089 -1.7448,-9.275 -3.67327,-10.10149 -5.41807,-8.81584 -14.60123,-24.33539 z M 262.2612,41.50964 c 1.56114,0.09183 3.30594,1.193812 4.86708,2.20396 0.73465,0.459158 1.65297,1.10198 2.11213,1.193811 1.65297,-0.183663 2.75495,-0.826485 3.39777,-1.836633 0.91832,-1.469306 0.73465,-3.397771 0.45916,-4.499751 -0.0918,-0.367327 -0.18366,-0.642822 -0.18366,-0.642822 0,-0.09183 -0.0918,-0.183663 -0.0918,-0.183663 -2.02029,-2.846781 -4.68341,-3.581435 -6.52004,-4.132425 -0.55099,-0.183663 -1.10198,-0.367326 -1.56114,-0.55099 v 1.928465 c 0,0 0,0.826485 -0.55099,2.020297 -0.55099,1.10198 -2.66312,4.040593 -2.84678,4.407919 l 0.73465,0.183664 c 0,-0.09183 0.0918,-0.09183 0.18366,-0.09183 z m 4.40792,-5.785395 0.0918,0.09183 2.93862,1.744802 -0.36733,0.642821 -1.56114,-1.10198 c 0,0 -0.73465,0.918317 -1.10198,0.642822 -0.18366,-0.183663 -1.10198,-1.193812 0,-2.020297 z m 9.64233,182.102175 h 0.18366 c 0.82649,-0.0918 1.46931,-0.45915 2.0203,-1.10197 l -1.7448,-11.20347 c -0.36733,0.18367 -0.82649,0.2755 -1.37748,0.36733 h -0.55099 c -0.73465,0 -1.46931,-0.18366 -2.20396,-0.55099 l 0.91832,11.11163 c 0.73465,0.91832 1.7448,1.37747 2.75495,1.37747 z m -23.23341,0.18367 2.75495,0.27549 c 0.82648,-0.36732 1.4693,-1.19381 1.92846,-2.02029 l 0.55099,-10.19332 c -0.55099,0.2755 -1.28564,0.45916 -2.11213,0.55099 h -0.18366 c -0.36733,0 -0.82648,-0.0918 -1.19381,-0.18366 h -0.0918 0.0918 c -0.45916,-0.0918 -0.82649,-0.2755 -1.19381,-0.45916 l -0.55099,4.40792 -0.82649,6.97921 c 0.2755,0.18366 0.55099,0.45915 0.82649,0.64282 z m 7.07103,-43.06905 c -1.10198,-0.0918 -2.11212,-0.2755 -3.12227,-0.55099 l -3.21411,27.91682 c 0.45916,0.64283 1.01015,1.19382 1.83663,1.37748 0.18367,0 0.45916,0.0918 0.64283,0.0918 1.19381,-0.0918 1.92846,-0.91832 2.47945,-1.83663 z m 1.83664,43.62004 c 1.10198,-0.18367 2.02029,-0.82649 2.66312,-1.65297 v -10.92797 c -0.82649,0.45916 -1.74481,0.64282 -2.66312,0.64282 h -0.0918 c -0.64283,0 -1.19382,-0.18366 -1.83664,-0.36732 l -0.55099,10.00965 -0.0918,1.56113 c 0.36733,0.2755 0.82649,0.55099 1.28564,0.64283 0.36733,0.0918 0.82649,0.0918 1.28565,0.0918 z m -9.275,-17.26435 3.12228,-27.18218 c -1.28565,-0.27549 -2.47946,-0.73465 -3.67327,-1.10198 l -4.86708,27.45767 c 0.45916,1.01015 1.01015,1.92847 2.20396,2.20396 0.18367,0 0.36733,0.0918 0.45916,0.0918 1.19381,-0.0918 2.11213,-0.55099 2.75495,-1.4693 z m -6.06089,15.88687 c 0.45916,0.0918 0.91832,0.18367 1.28564,0.18367 1.19382,-0.0918 2.20396,-0.73466 2.93862,-1.7448 l 1.28564,-10.56065 c -0.64282,0.2755 -1.28564,0.36733 -1.92846,0.45916 h -0.18367 c -0.36732,0 -0.73465,0 -1.01015,-0.0918 -0.91831,-0.18366 -1.7448,-0.64282 -2.29579,-1.10198 l -1.92846,10.74431 c 0.36732,0.91831 0.82648,1.7448 1.83663,2.11212 z M 62.710999,138.75937 95.862227,131.5965 c -1.46931,-0.73466 -2.38762,-1.83664 -3.03044,-2.84679 L 58.9459,134.35145 c -1.193811,1.10198 -0.826484,2.38762 -0.275495,3.03044 0.55099,0.45916 1.836634,1.28564 4.040594,1.37748 z m 177.877931,77.04676 c 0.18366,0 0.36733,0.0918 0.55099,0.0918 0.64282,0 1.28564,-0.18366 1.83663,-0.55099 l 2.0203,-11.20346 c -0.27549,0 -0.45916,0.0918 -0.73465,0.0918 -0.36733,0 -0.64282,0 -1.01015,-0.0918 h -0.18366 c -1.01015,-0.2755 -1.83664,-0.82649 -2.38763,-1.46931 -0.0918,0.0918 -0.27549,0.0918 -0.45916,0.0918 l -1.37747,6.33639 -0.91832,4.22425 c 0.0918,0.0918 0.0918,0.18367 0.18367,0.36733 0.73465,1.01015 1.37747,1.83663 2.47945,2.11213 z m 23.96806,-35.0797 v -5.5099 c -1.10198,0 -2.20396,-0.0918 -3.2141,-0.18366 l -1.56114,27.73316 c 0.55099,0.64282 1.28564,1.01015 2.02029,1.01015 1.19382,0 2.11213,-0.64282 2.75495,-1.46931 0.0918,-4.49975 0,-13.22375 0,-21.58044 z M 87.689207,120.20937 c -0.27549,-0.55099 -0.36732,-1.10198 -0.45916,-1.65297 l -35.906174,3.12228 c -1.010149,0.91831 -1.285644,2.11213 -0.918317,2.84678 0.459158,1.19381 1.928465,2.47945 4.224256,2.66312 l 35.538855,-3.94876 c -1.10198,-0.73466 -1.92847,-1.74481 -2.47946,-3.03045 z m -29.202465,13.13193 33.885885,-5.60173 c 0,-0.0918 -0.0918,-0.18367 -0.0918,-0.2755 -0.36733,-1.01015 -0.36733,-2.02029 0,-3.03044 -0.2755,-0.0918 -0.55099,-0.2755 -0.82649,-0.36733 l -36.640831,4.13242 c -1.193812,1.10198 -1.285643,2.66312 -0.734654,3.39778 0.918317,1.10198 2.295792,1.65297 4.40792,1.7448 z m 215.712578,40.49776 4.31609,27.45767 c 0.55099,0.55099 1.28564,1.01014 2.11212,1.01014 h 0.18367 c 1.19381,0 2.02029,-0.64282 2.66312,-1.4693 l -5.69357,-28.10049 c -1.28564,0.45916 -2.38762,0.82648 -3.58143,1.10198 z m -30.30445,27.5495 h 0.45916 c 0.64282,0 1.19381,-0.2755 1.83663,-0.73466 l 4.95891,-28.10048 c -1.10198,-0.45916 -2.20396,-0.91832 -3.21411,-1.46931 l -6.33638,27.91682 c 0.0918,0.0918 0.0918,0.2755 0.18366,0.36733 0.55099,1.01015 1.10198,1.7448 2.11213,2.0203 z m 197.8054,-91.28067 c 0.18366,-1.01015 -0.36733,-2.0203 -1.19382,-4.68342 h -76.3121 l -0.2755,0.82649 c -0.0918,0.18366 -0.45916,1.37747 -1.37747,3.03044 l 73.92448,4.77525 c 2.38762,-0.55099 4.86708,-1.7448 5.23441,-3.94876 z m -166.7663,93.02547 h 0.18367 c 0.91831,-0.0918 1.65297,-0.64282 2.29579,-1.56114 l -4.31609,-27.45767 c -0.91832,0.2755 -1.92847,0.45916 -2.84678,0.55099 l 2.29579,27.27401 c 0.64282,0.73465 1.46931,1.19381 2.38762,1.19381 z m 11.66262,-2.20396 h 0.36733 c 1.01015,-0.18366 1.7448,-0.91832 2.20396,-1.7448 l -7.5302,-28.37598 c -1.01015,0.55099 -1.92846,1.01014 -2.93861,1.4693 l 5.60173,27.5495 c 0.64282,0.64282 1.37748,1.01015 2.29579,1.10198 z m 3.21411,14.41757 h 0.45916 c 0.91832,-0.18366 1.65297,-0.73465 2.20396,-1.37747 l -1.92847,-7.07104 -1.10198,-4.0406 c -0.64282,0.36733 -1.28564,0.64283 -2.02029,0.82649 -0.2755,0 -0.55099,0.0918 -0.73466,0.0918 h -0.0918 c -0.45916,0 -0.91831,-0.0918 -1.4693,-0.27549 -0.0918,0 -0.0918,0 -0.18367,0.0918 l 2.11213,10.46881 c 0.73465,0.73465 1.65297,1.28564 2.75495,1.28564 z m -9.82599,0 c 0.73466,0.91832 1.65297,1.56114 2.84678,1.56114 h 0.18367 c 1.10198,0 2.02029,-0.55099 2.66312,-1.19381 l -2.20396,-10.83614 -0.0918,-0.45916 c -0.82648,0.45916 -1.65297,0.64282 -2.57128,0.64282 h -0.36733 c -0.55099,0 -1.28564,-0.0918 -2.02029,-0.45915 h -0.18367 l 0.64282,4.40792 z m -43.98736,-17.53985 c 0,0 0,0.0918 0,0 0.36732,0.82649 0.64282,1.37748 1.10198,1.7448 0.55099,0.18367 1.19381,0.45916 1.83663,0.64283 0.55099,-0.0918 0.91832,-0.2755 1.28564,-0.55099 l 6.61188,-29.11064 c -1.19381,-0.64282 -2.29579,-1.37747 -3.39777,-2.20396 z m -2.84678,16.34604 c 0.55099,0.18366 1.01015,0.27549 1.56113,0.45916 0.55099,0 1.01015,-0.18367 1.37748,-0.45916 l 2.38762,-11.11163 c -0.64282,0 -1.19381,-0.0918 -1.7448,-0.36733 -1.10198,-0.45916 -1.83663,-1.19381 -2.38762,-1.92846 -0.0918,0 -0.18366,0 -0.36733,0.0918 l -2.66312,10.83613 c 0.0918,0.18367 0.0918,0.2755 0.18367,0.36733 0.55099,0.82649 0.91831,1.56114 1.65297,2.11213 z m -4.95891,-2.0203 c 0.55099,0 1.01015,-0.0918 1.4693,-0.27549 l 2.66312,-11.0198 c -0.55099,-0.0918 -1.10198,-0.18367 -1.65297,-0.45916 h -0.18366 c -1.10198,-0.55099 -1.7448,-1.28564 -2.20396,-2.0203 l -3.4896,11.20347 c 0,0.0918 0.0918,0.18366 0.0918,0.27549 0.45916,0.91832 0.73465,1.65297 1.7448,2.11213 0.55099,0.0918 1.01015,0.18366 1.56114,0.18366 z m 54.548,-41.87523 7.43837,28.19231 c 0.64282,0.55099 1.37747,0.82649 2.02029,0.82649 0.18367,0 0.36733,0 0.45916,-0.0918 0.91832,-0.18367 1.7448,-0.82649 2.29579,-1.83664 l -9.27499,-29.20246 c -0.82649,0.82648 -1.92847,1.4693 -2.93862,2.11213 z m 31.3146,-14.87673 c -1.46931,0 -3.03045,-0.45916 -4.40792,-1.28565 -0.64282,0.45916 -1.46931,0.73466 -2.57129,0.91832 l 1.28565,4.68341 c 0.82648,0.73466 1.92846,1.37748 3.2141,1.56114 l 0.36733,-0.0918 0.0918,0.18366 c 0.2755,0 0.55099,0.0918 0.82649,0.0918 1.19381,0 2.84678,-0.36733 3.21411,-1.46931 l -1.37748,-4.59158 z m -10.10148,-26.26386 5.60173,21.58044 c 1.10198,0.91832 2.84678,1.83663 4.40792,1.83663 1.56114,0 2.57128,-0.45915 2.84678,-1.37747 l -8.35668,-22.13143 z m 18.45816,-0.18366 12.21361,21.67227 c 1.83663,1.28564 4.22426,2.20396 6.24455,2.20396 1.37748,0 2.75495,-1.56114 2.0203,-2.75495 l -0.18366,-0.18366 c 0,-0.0918 -0.0918,-0.0918 -0.0918,-0.18367 0,0 0.0918,0 0.0918,0.0918 l -16.16238,-21.30494 c -1.37747,0.18366 -2.75494,0.36733 -4.13242,0.45916 z m 14.69307,-2.38762 27.82499,25.07004 c 1.56114,0.82648 3.21411,1.28564 4.86708,1.28564 0.36732,0 0.82648,0 1.19381,-0.0918 1.4693,-0.2755 2.11213,-1.19381 1.92846,-2.11213 L 339.95079,125.7193 c -0.91832,0.2755 -1.83664,0.55099 -2.84678,0.82649 z m -21.21312,2.57128 10.28515,21.7641 c 1.7448,1.28565 4.04059,1.83664 5.69356,1.83664 0.82649,0 1.92847,-0.2755 2.20396,-0.91832 l -12.85643,-22.86608 c -1.65297,0.0918 -3.4896,0.18366 -5.32624,0.18366 z m 16.98886,-1.56114 21.85593,24.24356 c 1.56114,0.91832 3.39778,1.56114 5.5099,1.56114 h 0.18367 c 1.56114,0 2.66312,-0.91832 2.47945,-2.0203 l -26.99851,-24.51905 c -1.01014,0.2755 -1.92846,0.45916 -3.03044,0.73465 z m -11.0198,33.79405 c 1.7448,0 3.21411,-0.64282 3.4896,-1.65297 l -2.29579,-4.59158 h -0.55099 c -1.56114,0 -3.03044,-0.36733 -4.40792,-1.01015 -0.55099,0.45916 -1.37747,0.82649 -2.38762,1.01015 l 1.37747,4.59158 c 1.46931,1.19382 3.67327,1.65297 4.77525,1.65297 z m 10.83614,-5.87722 c -0.2755,0 -0.55099,0.0918 -0.82649,0.0918 -1.7448,0 -3.85693,-0.45916 -5.69356,-1.37748 -0.64282,0.45916 -1.37748,0.64283 -2.11213,0.82649 l 2.47945,5.05074 c 1.46931,0.82649 3.48961,1.28564 4.49976,1.28564 1.56113,0 4.40792,-0.82648 3.30594,-2.47945 l 0.0918,0.0918 z m -127.46235,5.87722 c 1.19381,0 3.48961,-0.45915 4.95891,-1.65297 l 1.65297,-5.2344 c -0.0918,-0.0918 -0.18366,-0.18366 -0.36732,-0.2755 -1.37748,0.64283 -2.93862,1.01015 -4.40792,1.01015 -0.82649,0 -1.83664,-0.18366 -2.75495,-0.55099 l -2.57129,5.05074 c 0.27549,1.01015 1.7448,1.65297 3.4896,1.65297 z m 104.32077,-32.23291 8.17302,21.67227 c 1.19381,0.91832 2.93861,1.56114 4.68341,1.56114 1.01015,0 2.29579,-0.36733 2.66312,-1.19381 l -10.37698,-22.13143 z m 31.59009,-3.7651 33.79405,25.62104 c 1.83663,0.82648 3.94876,1.37747 6.15272,1.37747 h 0.55099 c 1.65297,-0.0918 2.11213,-1.10198 1.7448,-2.11213 l -39.94677,-25.71286 c -0.82648,0.27549 -1.56114,0.55099 -2.29579,0.82648 z m -13.40742,3.03045 17.63168,23.14158 c 1.37747,0.73465 3.03044,1.37747 4.68341,1.37747 2.11213,0 2.84678,-1.10198 2.66312,-2.11213 l -20.93762,-23.04974 c -1.28564,0.27549 -2.66312,0.45915 -4.04059,0.64282 z m 28.00865,-11.11163 66.30246,19.65197 c 0.64282,0.0918 1.28564,0.0918 1.83663,0.0918 2.0203,0 3.67327,-0.55099 4.95891,-2.20396 1.28565,-1.7448 -0.18366,-3.58143 -2.02029,-4.59158 l -69.05741,-14.7849 c -0.64282,0.64283 -1.28564,1.28565 -2.0203,1.83664 z m -51.88489,44.53835 c 1.19382,0 2.93862,-0.45916 3.58144,-1.4693 l -1.37748,-5.23441 c -2.11212,0 -5.78539,-0.82648 -8.26484,-2.20396 -0.18367,0.45916 -0.36733,0.91832 -0.64283,1.37748 l 1.46931,5.78539 c 1.46931,1.10198 3.94876,1.7448 5.2344,1.7448 z m -11.01979,-0.45916 c 0.73465,0.18367 1.37747,0.2755 1.92846,0.2755 0.91832,0 2.47946,-0.36733 2.93861,-1.28564 l -1.19381,-4.68342 c -1.10198,2.0203 -2.29579,3.94876 -3.67326,5.69356 z m 51.60939,-37.28365 41.59974,26.72301 c 1.19381,0.45916 2.38762,0.64282 3.4896,0.64282 0.73466,0 1.46931,-0.0918 2.11213,-0.36732 1.10198,-0.45916 1.65297,-1.28565 1.28564,-2.20396 l -46.92597,-25.5292 c -0.45916,0.27549 -0.91832,0.55099 -1.56114,0.73465 z m 97.43339,-8.63218 c 0.36733,0.64283 0.55099,1.28565 0.64282,2.0203 l 32.96757,3.12228 c 3.03044,-0.2755 4.13242,-1.92847 4.49975,-2.84678 0.36733,-0.91832 0.27549,-2.47946 -1.19381,-3.48961 l -34.98787,-1.7448 c -0.55099,1.01015 -1.28564,1.7448 -2.20396,2.38762 0,0.18367 0.0918,0.36733 0.2755,0.55099 z m 2.57129,-4.86707 c -0.0918,0.36732 -0.18367,0.64282 -0.2755,1.01014 l 33.88588,1.65297 c 2.66312,-0.82648 2.93862,-3.30594 3.12228,-4.31608 0,-1.92847 -1.10198,-2.93862 -2.11213,-3.39778 h -35.72251 c 0.0918,0.18367 0.0918,0.36733 0.18366,0.45916 0.64282,1.83664 1.10198,3.12228 0.91832,4.59159 z m -9.73416,15.97871 c 0.36733,-1.10198 -0.45916,-2.20396 -1.83663,-3.12228 l -72.82251,-10.56064 c -0.45916,0.55099 -0.91832,1.10198 -1.46931,1.65297 l 71.26137,15.24405 c 2.11213,-0.0918 4.0406,-0.91831 4.86708,-3.2141 z m -87.42374,-3.7651 48.11979,26.26385 c 1.37747,0.36733 2.75495,0.64282 3.85693,0.64282 0.36733,0 0.73465,0 1.01015,-0.0918 2.57128,-0.73465 2.66312,-2.02029 1.65297,-3.21411 l -52.43588,-24.79454 c -0.73465,0.45915 -1.46931,0.82648 -2.20396,1.19381 z m 3.21411,-1.7448 55.19083,26.08019 c 0.45915,0.0918 1.01014,0.0918 1.4693,0.0918 0.55099,0 1.10198,-0.0918 1.65297,-0.18366 2.84678,-0.55099 4.95891,-1.74481 4.31609,-3.12228 l -61.06805,-23.87623 c -0.45916,0.36732 -1.01015,0.73465 -1.56114,1.01015 z m 2.57128,-1.65297 60.24157,23.60073 c 3.48961,-0.18366 5.7854,-0.45916 6.15272,-0.64282 4.13243,-1.92846 2.57129,-3.7651 0.18367,-5.05074 l -64.92499,-19.19282 c -0.45915,0.45916 -1.01014,0.82649 -1.65297,1.28565 z m 9.36683,41.96706 c 1.46931,0 3.58144,-0.45915 3.30594,-1.65297 l -4.31608,-3.76509 c -0.2755,0 -0.55099,0.0918 -0.82649,0.0918 h -0.18366 c -2.20396,0 -4.40792,-0.55099 -6.42822,-1.65297 -0.36733,0.36732 -0.82648,0.55099 -1.37747,0.82648 l 3.76509,4.77525 c 2.0203,1.01015 4.77525,1.37747 6.06089,1.37747 z m 59.78241,-1.7448 c 0.91832,0 1.83664,-0.0918 2.57129,-0.27549 2.20396,-0.82649 2.38762,-2.0203 0.82649,-3.30594 l -14.14208,-6.79554 c -0.64282,0.18366 -1.28564,0.36732 -2.0203,0.55098 -0.73465,0.18367 -1.4693,0.18367 -2.20396,0.18367 -0.82648,0 -1.65297,-0.0918 -2.47945,-0.2755 -0.2755,0.45916 -0.64282,0.91832 -1.28564,1.37748 l 13.13192,7.62203 c 1.7448,0.64282 3.7651,0.91831 5.60173,0.91831 z M 298.99387,129.11704 c 1.01015,3.30594 1.4693,6.70371 1.4693,10.19332 0,1.83663 -0.36732,4.13242 -0.73465,6.24455 l 1.37748,5.78539 c 1.65296,0.55099 3.58143,1.01015 4.86707,1.01015 1.46931,0 2.29579,-0.45916 2.57129,-1.19381 l -5.69356,-21.94777 z m 90.72968,30.85544 -7.16287,-4.95891 c -0.2755,0.0918 -0.55099,0.0918 -0.91832,0.0918 h -0.64282 c -2.38762,0 -4.49975,-0.55099 -6.42822,-1.28564 -0.64282,0.73465 -1.65297,1.28564 -2.84678,1.65297 l 5.23441,3.4896 c 3.2141,2.0203 6.33638,2.47946 9.73415,2.47946 1.46931,0 3.30594,-0.45916 3.03045,-1.46931 z m 20.38663,1.01015 h 0.73465 c 2.66312,-0.18367 3.67326,-1.46931 2.66312,-2.75495 l -11.20347,-6.52005 c -0.45915,0.18366 -0.91831,0.36733 -1.4693,0.55099 h -0.18367 c -0.45915,0.0918 -1.01014,0.0918 -1.4693,0.0918 -1.28565,0 -2.75495,-0.27549 -4.13243,-0.64282 -0.36732,0.55099 -0.91831,1.01015 -1.4693,1.37747 l 10.37697,6.70372 c 1.92847,0.73465 4.13243,1.19381 6.15273,1.19381 z m -11.75446,0.91831 h 1.28565 c 1.56113,-0.0918 2.75495,-1.01014 2.20396,-2.11212 l -9.275,-5.96906 c -0.91832,0.27549 -1.83663,0.45916 -2.93861,0.45916 -1.37748,0 -2.75495,-0.2755 -4.31609,-0.73466 -0.36733,0.45916 -0.91832,0.82649 -1.46931,1.19381 l 9.18317,6.42822 c 1.4693,0.36733 3.2141,0.73465 5.32623,0.73465 z m 34.62054,-4.49975 c 1.10198,0 2.0203,-0.18366 2.75495,-0.45916 1.28564,-0.82648 0.82648,-2.47945 -1.19381,-3.67326 l -17.53985,-7.71386 c -0.36733,0 -0.73465,0.0918 -1.10198,0.0918 -0.36733,1.28564 -1.46931,2.38762 -3.21411,3.21411 l 17.26435,8.26485 c 1.10198,0.0918 2.11213,0.27549 3.03045,0.27549 z m 40.0386,-25.80469 c 0.55099,-0.73466 0.45916,-2.2958 -0.82648,-3.48961 l -33.24306,-4.49975 c -0.55099,0.36733 -1.10198,0.64282 -1.65297,0.82649 0.27549,0.82648 0.36732,1.65297 0.18366,2.47945 l 31.49826,6.42822 c 1.92846,-0.0918 3.21411,-0.73466 4.04059,-1.7448 z m -4.59158,5.69356 c 0.64282,-0.64282 0.91832,-2.0203 -0.45916,-3.12228 l -30.76361,-6.24455 c -0.64282,1.37747 -1.65296,2.84678 -3.58143,3.7651 l 29.38613,7.53019 c -0.36733,-0.27549 -0.82648,-0.55099 -1.46931,-0.73465 1.01015,0.2755 1.92847,0.36733 2.66312,0.36733 2.20396,0 3.67327,-0.91832 4.22426,-1.56114 z m -14.60123,10.28515 c 0.64282,-0.64283 1.10198,-1.37748 0.82648,-2.20396 l -24.70272,-7.8057 c -1.28564,1.28565 -3.03044,2.0203 -5.14257,2.20396 v 0.0918 c 0,0.45915 -0.0918,0.82648 -0.18366,1.28564 l 21.48861,8.26485 c 0.55099,0.0918 1.19381,0.0918 1.7448,0.0918 2.47945,-0.0918 4.59158,-0.64282 5.96906,-1.92846 z m 8.9995,-4.68342 c 0.64282,-0.45916 1.19381,-1.46931 0.91831,-2.38762 l -31.86558,-8.17302 c 0.27549,1.37747 0,2.84678 -0.82649,4.04059 -0.0918,0.0918 -0.18366,0.2755 -0.27549,0.36733 l 22.77425,7.2547 c 1.28564,0.2755 2.47946,0.36733 3.58144,0.36733 2.75494,0 4.77524,-0.82649 5.69356,-1.46931 z m -22.0396,11.20346 c 2.0203,0 3.85693,-0.36732 4.77525,-1.19381 1.01014,-0.91832 0.91831,-1.83663 0,-2.75495 l -21.21312,-8.17302 c -0.64282,1.10198 -1.83663,2.0203 -3.58143,2.84679 -0.2755,0.0918 -0.55099,0.27549 -1.7448,0.45915 l 20.0193,8.81584 z m -121.21779,16.5297 c 1.01015,0 2.29579,-0.36732 3.03044,-1.10198 l -1.65297,-5.5099 c -1.10198,-0.0918 -2.57128,-0.45916 -3.94876,-1.10198 -1.56114,1.10198 -3.4896,1.19381 -4.13242,1.19381 h -0.0918 l 1.10198,3.85693 c 1.65297,1.65297 4.49975,2.66312 5.69356,2.66312 z m -9.55049,0 c 1.10198,0 2.29579,-0.27549 2.84678,-1.10198 l -1.46931,-5.5099 c -1.01015,-0.18366 -2.0203,-0.45916 -2.84678,-0.91831 -1.37748,1.01014 -3.21411,1.37747 -4.59158,1.37747 -1.19382,0 -3.30594,-0.36733 -5.14258,-1.28564 -0.18366,0.0918 -0.36732,0.18366 -0.55099,0.36732 3.94876,1.74481 8.08119,4.40792 11.75446,7.07104 -0.18367,-0.0918 -0.0918,0 0,0 z m 20.57029,-0.27549 c 1.28564,0 2.57128,-0.55099 2.66312,-1.83664 l -2.2958,-4.59158 c -1.10198,0 -3.03044,-0.36733 -4.77524,-1.10198 -1.01015,0.73465 -2.38762,1.10198 -3.94876,1.19381 l 1.10198,3.58144 c 1.4693,1.56114 4.49975,2.75495 7.2547,2.75495 z m -31.86559,-20.11114 c 0.36733,0.18367 0.73466,0.45916 1.19381,0.64282 l -0.73465,-2.93861 c -0.27549,1.46931 -0.45916,2.47946 -0.45916,2.29579 z m 75.85295,11.20347 c 1.28565,0 2.57129,-0.2755 2.84678,-0.91832 l -7.07103,-4.77525 h -0.55099 c -1.7448,0 -3.48961,-0.45916 -5.23441,-1.19381 -0.55099,0.55099 -1.19381,0.91832 -1.92846,1.19381 l 5.5099,4.68342 c 2.38762,0.82648 5.14257,1.01015 6.42821,1.01015 z m 102.20864,-37.00816 c 0.36733,-0.73466 0.0918,-1.92847 -1.01015,-2.84678 l -33.42672,-3.12228 c -0.0918,0.55099 -0.18367,1.19381 -0.45916,1.7448 -0.45916,1.01015 -1.10198,1.83663 -1.83663,2.47946 l 32.69207,4.40792 c 2.20396,-0.2755 3.67326,-1.46931 4.04059,-2.66312 z m -125.44205,36.64083 c 1.56114,0 3.21411,-0.55099 3.30594,-1.56114 l -3.21411,-4.04059 c -0.45915,0.0918 -0.91831,0.18366 -1.4693,0.18366 -2.11213,0 -4.13243,-0.73465 -5.69356,-1.56114 -0.64283,0.64282 -1.56114,1.10198 -2.47946,1.28565 l 3.21411,4.22425 c 1.7448,1.10198 5.05074,1.46931 6.33638,1.46931 z m -7.2547,-1.01015 -3.4896,-4.59158 c -1.56114,0 -3.30594,-0.45916 -4.95891,-1.19381 -0.55099,0.45915 -1.19381,0.73465 -1.83663,0.91831 l 2.66311,4.95891 c 1.10198,0.55099 2.38763,0.91832 4.0406,0.91832 1.56114,0 3.12227,-0.2755 3.58143,-1.01015 z m -2.75495,10.56064 c 1.19381,0 2.47946,-0.55099 2.84678,-1.4693 l -2.93861,-5.32624 h -0.91832 c -2.02029,0 -3.58143,-0.45916 -4.86707,-1.01015 -1.01015,0.64282 -2.2958,1.01015 -3.12228,1.10198 l 2.20396,4.31609 c 1.83663,1.28564 4.31609,2.38762 6.79554,2.38762 z M 60.59887,141.23882 c -2.112128,-0.45916 -3.305939,-1.46931 -3.856929,-2.0203 -0.367327,-0.36732 -0.642822,-0.82648 -0.918317,-1.28564 l -14.876729,2.93861 c -0.826485,1.01015 -0.55099,2.47946 0.55099,3.39778 1.010148,0.91831 3.030445,1.56113 5.234405,1.65297 l 14.050244,-3.48961 c -0.09183,-0.36732 -0.183664,-0.73465 -0.183664,-1.19381 z m 176.22496,76.03661 c -0.64282,0.2755 -1.37747,0.45916 -2.11213,0.45916 h -0.18366 c -0.73465,0 -1.4693,-0.18366 -2.20396,-0.45916 -0.73465,-0.27549 -1.28564,-0.64282 -1.7448,-1.10197 l -3.12228,12.67276 c 0.36733,2.66312 1.74481,5.05075 2.57129,5.32624 2.0203,0.91832 4.13243,-2.93861 4.59158,-6.24455 0,0.18366 -0.0918,0.45916 -0.0918,0.64282 z m 6.42822,1.37748 c -0.73465,0.27549 -1.37748,0.36733 -2.11213,0.36733 -0.36733,0 -0.73465,0 -1.19381,-0.0918 h -0.18366 c -0.82649,-0.18366 -1.46931,-0.55099 -2.0203,-1.01014 l -2.84678,13.95841 c 0.64282,2.20396 1.92846,3.94876 2.75495,4.13242 0.91831,0.18367 2.75495,-0.55099 3.7651,-3.30594 l 2.29579,-13.59108 c -0.18367,-0.2755 -0.2755,-0.36733 -0.45916,-0.45916 z m -58.12944,-50.69108 2.29579,-4.13242 h -0.73465 c -2.11213,0 -3.67327,-0.36733 -4.77525,-1.10198 -1.46931,0.55099 -3.03044,0.82648 -4.22426,0.91832 l -3.58143,4.59158 c -0.18366,1.19381 1.10198,2.20396 3.4896,2.20396 2.57129,0 5.23441,-0.91832 7.5302,-2.47946 z m 65.38414,51.97672 c -0.82648,0.36733 -1.65297,0.55099 -2.57129,0.55099 h -0.18366 c -0.36733,0 -0.82648,0 -1.19381,-0.0918 h -0.18366 c -0.73466,-0.18366 -1.37748,-0.45916 -1.92847,-0.82648 l -2.29579,13.49925 c 0.45916,2.38762 1.65297,4.59158 2.75495,4.68342 1.7448,0.36732 3.58143,-1.46931 4.31609,-5.14258 z m -13.40742,-50.96657 c 0.18366,0 0.27549,0 0.45916,-0.0918 l -0.18367,0.55099 v 0.0918 l -7.62202,24.33539 c 0.0918,0.73465 0.27549,1.46931 0.55099,2.11213 0.36732,0.82648 0.64282,1.46931 1.4693,1.83663 0.36733,0.18367 0.82649,0.2755 1.19381,0.2755 v -0.0918 l 0.18367,0.0918 c 0.64282,0 1.19381,-0.2755 1.65297,-0.55099 l 7.62202,-29.84529 c -1.83663,-1.46931 -3.58143,-3.12228 -5.14257,-4.86708 -1.37747,0.45916 -3.21411,1.19381 -4.31609,1.46931 -4.49975,2.11213 -9.36683,5.32623 -13.31559,8.35668 -4.49975,4.86708 -8.54034,11.20346 -11.0198,18.82549 -2.47945,7.62203 -5.87722,22.40692 -19.00915,21.39678 7.71386,-6.97921 -2.57129,-17.81535 -10.19331,-10.92797 -5.96906,5.41807 -4.77525,15.42772 5.5099,17.08069 4.13242,0.73465 21.02945,3.4896 27.82499,-19.28465 6.33638,-20.57029 16.71336,-28.10049 24.33539,-30.76361 z m -7.43837,46.0995 c -0.45915,0.0918 -1.01014,0.18366 -1.4693,0.18366 -0.91832,0 -1.83664,-0.18366 -2.75495,-0.55099 h -0.18367 c -0.73465,-0.36733 -1.28564,-0.73465 -1.7448,-1.19381 l -3.03044,9.73415 c -0.73466,3.58144 0.73465,7.43837 1.7448,7.80569 1.46931,0.64283 3.12228,0.18367 4.31609,-2.38762 l 3.30594,-13.31559 c 0,-0.0918 -0.0918,-0.18366 -0.18367,-0.27549 z m 25.25371,6.52004 h -0.18366 c -0.45916,0 -0.91832,-0.0918 -1.37748,-0.18366 h -0.18366 0.0918 c -0.73465,-0.18366 -1.28564,-0.45916 -1.83663,-0.73465 l -1.56114,14.2339 c 0.64282,2.47946 1.92846,4.0406 2.84678,4.13243 1.46931,0.45916 2.84678,-1.7448 3.67327,-4.49975 l 1.10198,-13.77475 c -0.64282,0.55099 -1.56114,0.82648 -2.57129,0.82648 z m 14.60123,0.18367 c -0.27549,0.0918 -0.55099,0.0918 -0.82648,0.0918 h -0.18366 c -0.91832,0 -1.74481,-0.2755 -2.57129,-0.64282 l -0.55099,15.15222 c 1.01015,2.20396 2.75495,3.21411 3.58143,3.03045 1.19382,0 3.39778,-1.74481 4.13243,-5.14258 l -1.01015,-13.31559 c -0.91832,0.36733 -1.7448,0.64282 -2.57129,0.82649 z m 7.43837,-0.82649 h -0.73465 c -1.10198,-0.0918 -2.11213,-0.36733 -3.03045,-0.82648 -0.0918,0.0918 -0.18366,0.0918 -0.27549,0.18366 l 1.19381,15.24406 c 0.82648,1.83663 2.20396,2.84678 3.39777,2.75495 0.82648,-0.0918 2.57128,-1.56114 3.21411,-4.40792 l -1.65297,-13.68292 c -0.64282,0.36732 -1.28565,0.64282 -2.11213,0.73465 z m -15.61138,0.73465 h -0.0918 c -1.01014,0 -1.92846,-0.27549 -2.75495,-0.73465 l -1.19381,14.14208 c 0.55099,2.66312 2.0203,4.13242 3.21411,4.13242 2.29579,0.0918 3.58144,-2.47945 4.04059,-5.32623 l 0.55099,-13.22376 c -1.19381,0.64282 -2.47945,1.01014 -3.76509,1.01014 z M 111.19812,161.44179 c -2.11213,0.55099 -4.31609,0.82648 -6.24455,0.82648 -1.19382,0 -2.2958,-0.0918 -3.21411,-0.36733 h -0.18367 c -0.0918,0 -0.18366,-0.0918 -0.27549,-0.0918 l -7.162873,4.0406 c -0.0918,1.37747 2.0203,2.38762 4.77525,2.38762 2.663113,0.18366 6.428213,-0.45916 9.734153,-1.83663 l 5.05075,-3.21411 c -1.10199,-0.36733 -1.92847,-1.01015 -2.47946,-1.7448 z m -12.856433,-1.92847 c -1.56114,0.36733 -2.93862,0.55099 -4.22426,0.55099 -1.46931,0 -2.84678,-0.27549 -3.85693,-0.73465 l -0.18366,-0.0918 -0.18367,-0.0918 c -0.0918,0 -0.0918,-0.0918 -0.18366,-0.18366 l -6.70371,3.39777 c -0.45916,1.19381 1.28564,2.20396 3.12227,2.66312 1.56114,0.45916 4.49976,0.55099 7.07104,-0.18366 l 6.61188,-3.7651 c -0.73465,-0.45916 -1.19381,-1.01015 -1.4693,-1.56114 z m 77.505923,4.22426 c -0.91832,0 -2.84678,-0.0918 -4.31609,-1.19381 -2.02029,0.91831 -4.22425,1.28564 -5.69356,1.37747 l -3.58143,4.40792 c -0.18367,1.37748 2.47945,1.92847 4.31608,1.92847 1.83664,0 3.67327,-0.55099 5.41807,-1.37748 l 3.94876,-5.14257 z M 78.230549,152.07496 c -2.846781,-0.18367 -5.142573,-1.01015 -6.795543,-2.57129 -0.367326,-0.36733 -0.734653,-0.73465 -1.010148,-1.10198 l -12.213611,4.22426 c -1.469306,1.56113 0.367327,3.39777 2.663118,4.40792 1.010149,0.45915 3.673267,1.01014 6.336385,1.01014 l 11.203467,-4.86707 c 0,-0.2755 -0.183668,-0.64283 -0.183668,-1.10198 z m 204.968271,67.95542 h -0.45916 c -0.73465,0 -1.56114,-0.18366 -2.47945,-0.55099 -0.0918,0.0918 -0.2755,0.18367 -0.36733,0.2755 l 1.7448,14.7849 c 0.73466,1.7448 2.0203,2.84678 3.12228,2.75495 2.0203,0 3.12228,-2.20396 3.4896,-4.86708 l -1.7448,-13.22376 c -1.01015,0.45916 -2.11213,0.82648 -3.30594,0.82648 z M 69.782036,147.02422 c -2.846781,0 -5.418068,-0.82649 -7.071037,-2.0203 -0.55099,-0.36733 -0.918317,-0.91832 -1.285644,-1.37748 l -13.31559,3.30594 c -0.55099,1.10198 0,2.57129 1.193811,3.67327 1.193812,1.10198 3.581435,1.65297 5.785395,1.83663 l 14.693065,-5.14257 c 0.09183,-0.0918 0,-0.18366 0,-0.27549 z m 18.366331,9.73415 c -0.64282,0.0918 -1.19381,0.0918 -1.7448,0.0918 -2.93861,0 -5.14257,-0.64282 -6.52005,-1.83663 l -0.55099,-0.55099 -9.274996,3.94876 c -1.469306,1.28564 0.642822,2.93861 2.938613,3.58144 1.928465,0.64282 4.867078,0.64282 7.530193,0.27549 l 8.26485,-4.22426 c -0.36732,-0.36732 -0.55099,-0.82648 -0.64282,-1.28564 z m 64.374003,7.34653 c -1.83663,0 -3.30594,-0.45915 -4.31609,-1.19381 -2.0203,0.73466 -3.94876,1.10198 -5.69356,1.19381 l -5.7854,3.85693 c 0.0918,1.10198 2.2958,2.11213 4.49976,2.11213 1.01014,0 3.2141,-0.18366 5.50989,-1.01015 z m 7.71386,-1.28564 c -1.92847,0.73465 -4.04059,1.01015 -5.5099,1.19381 l -5.23441,4.40792 c 0,1.28565 2.66312,1.7448 5.60174,1.7448 1.4693,0 3.39777,-0.45915 5.2344,-1.28564 l 3.85693,-4.77525 c -1.10198,-0.0918 -2.75495,-0.36732 -3.94876,-1.28564 z m -36.91633,-0.0918 c -2.11213,0.64282 -4.31609,1.01015 -6.33638,1.01015 h -0.91832 c -0.27549,0 -0.45916,0 -0.73465,-0.0918 l -6.61189,4.13242 c 0.45916,0.91832 2.11213,1.46931 3.85693,1.56114 1.56115,0.0918 5.14258,-0.36733 8.26486,-1.46931 l 5.14257,-3.58143 c -1.10198,-0.18367 -2.0203,-0.73466 -2.66312,-1.56114 z m 12.94827,0.36733 c -2.0203,0.82648 -4.40792,1.4693 -7.43837,1.4693 h -0.73465 l -5.32624,3.58144 c 0.18366,1.01015 1.83663,1.7448 3.85693,1.7448 1.01015,0 3.7651,-0.2755 6.33639,-1.01015 l 7.16287,-4.77525 c -0.82649,0.0918 -2.57129,-0.0918 -3.85693,-1.01014 z M 507.45173,105.4245 h -24.51905 c 0.55099,0.91832 0.91832,2.0203 0.91832,3.39777 v 0.45916 c -0.2755,1.92847 -0.91832,3.30594 -1.83664,4.31609 l 23.14158,1.37748 c 1.65297,-1.01015 2.75495,-2.75495 3.03045,-4.86708 0.36732,-3.39777 -0.73466,-4.68342 -0.73466,-4.68342 z m -41.32424,37.37549 c -0.36733,0.91832 -0.91832,1.65297 -1.7448,2.29579 -1.28565,1.01015 -3.30594,1.65297 -5.5099,1.92847 l 14.87673,5.50989 c 2.47945,0 5.41806,-0.55099 6.79554,-1.83663 1.37747,-1.19381 1.83663,-2.75495 1.10198,-3.94876 z m -172.64352,74.38364 c -0.82649,0.64282 -1.7448,1.01015 -2.75495,1.19381 -0.2755,0 -0.64282,0.0918 -0.91832,0.0918 h -0.0918 c -0.55099,0 -1.19381,-0.0918 -1.92847,-0.2755 -0.18366,0.18366 -0.27549,0.2755 -0.45915,0.36733 l 1.92846,14.14207 c 0.91832,1.65297 2.29579,2.75495 3.4896,2.57129 1.74481,-0.27549 3.30594,-3.67327 3.03045,-6.79554 z m 145.09402,-59.50691 c -0.36733,0.55099 -0.82649,1.10198 -1.37748,1.4693 l -0.18366,0.0918 -0.18366,0.0918 c -1.10198,0.45916 -2.38762,0.73465 -3.85693,0.73465 -1.28564,0 -2.75495,-0.18366 -4.22426,-0.55099 0,0.0918 -0.0918,0.0918 -0.0918,0.18366 l 9.275,5.41807 c 2.20396,0.36733 4.49975,0.36733 5.87722,-0.0918 2.20396,-0.45916 4.22426,-1.83663 2.66312,-3.30594 z m 21.02945,0.36732 -11.0198,-4.77524 c -0.27549,0.64282 -0.64282,1.19381 -1.19381,1.65297 -1.37748,1.28564 -3.58144,1.83663 -6.52005,1.83663 -0.36733,0 -0.73465,0 -1.10198,-0.0918 l 10.83614,5.60173 c 2.29579,0.18366 4.77524,0.18366 6.42821,-0.45916 2.38763,-0.64282 4.59159,-2.47945 2.57129,-3.7651 z m -31.86559,2.66312 c -0.55099,0.45916 -1.19381,0.82649 -2.11212,1.19381 h -0.18367 c -0.91831,0.2755 -2.02029,0.36733 -3.21411,0.36733 -1.92846,0 -4.22425,-0.36733 -6.24455,-0.82648 0,0 0,0.0918 -0.0918,0.0918 l 9.73416,6.24455 c 2.02029,0.45916 3.94876,0.64282 5.5099,0.45916 3.12227,0 5.32623,-1.19381 4.68341,-2.84678 z m 43.80371,-23.7844 c -0.18367,0.91832 -0.55099,1.7448 -1.19382,2.38763 -0.55099,0.55099 -1.7448,1.56113 -3.85693,2.02029 v 0.2755 l 17.26436,4.31609 c 1.92846,-0.18367 3.67326,-0.82649 4.59158,-1.65297 1.10198,-0.91832 1.37747,-2.2958 0.55099,-3.30594 z M 55.456297,135.63709 c -1.377475,-0.45916 -2.571286,-1.19381 -3.489603,-2.20396 v -0.18366 l -0.09183,-0.0918 c -0.459159,-0.64282 -0.734654,-1.37747 -0.826485,-2.11212 l -15.978709,2.38762 c -1.285643,1.01015 -2.020297,2.93861 -0.734653,4.40792 1.010148,1.10198 2.479454,1.92846 4.224256,2.20396 l 16.897025,-3.39777 z m 142.247253,19.83564 c -0.91832,0 -1.74481,-0.18367 -2.47946,-0.45916 l -2.66312,4.95891 c 0.45916,0.91832 2.29579,1.28564 3.39777,1.28564 1.10198,0 3.03045,-0.45916 4.49976,-1.28564 l 2.93861,-5.87723 c -1.83663,0.91832 -3.94876,1.37748 -5.69356,1.37748 z m 303.87096,-39.21212 h 0.18366 l -19.19282,-1.19381 c 0.36733,1.28564 0.2755,2.66312 -0.0918,3.58143 -0.27549,0.73466 -1.01014,2.38763 -3.12227,3.58144 0.0918,0.18366 0.0918,0.27549 0.0918,0.45916 l 22.22326,1.7448 c 1.7448,-0.73466 3.12228,-1.92847 3.67327,-3.12228 0.91831,-2.20396 -0.91832,-4.77525 -3.7651,-5.05074 z m -1.92847,9.275 -19.92747,-1.56114 c 0,0.55099 -0.18366,1.10198 -0.36732,1.65297 -0.55099,1.28564 -1.65297,2.66312 -3.39777,3.4896 0.0918,0.18366 0.0918,0.45916 0.0918,0.64282 l 20.57029,3.12228 c 1.56114,-0.2755 3.12228,-0.91832 4.49975,-2.29579 1.19381,-1.83664 0.2755,-4.04059 -1.46931,-5.05074 z m -42.51805,22.13143 c -0.2755,0.64282 -0.73466,1.37747 -1.37748,1.92846 -1.65297,1.46931 -3.85693,2.38762 -6.61188,2.57129 l 13.77475,5.96906 c 2.57129,-0.0918 5.14257,-0.55099 6.15272,-1.01015 2.0203,-0.91832 3.7651,-2.47946 3.03045,-3.94876 z m -107.81037,54.27251 c -7.62203,-6.88738 -17.81535,3.94876 -10.19332,10.92797 -13.13193,0.91831 -16.5297,-13.77475 -19.00915,-21.39678 -2.57129,-7.89752 -6.70371,-14.41757 -11.47896,-19.37648 -4.22426,-3.12228 -9.09133,-6.15272 -13.40742,-7.71386 h -0.45916 c -0.55099,0 -2.75495,-0.0918 -4.13242,-0.36733 -1.19382,1.28565 -2.47946,2.38763 -3.85693,3.48961 l 9.27499,29.29429 c 0.45916,0.2755 0.91832,0.36733 1.46931,0.36733 0.36733,0 0.73465,-0.0918 1.01015,-0.18366 1.10198,-0.45916 1.83663,-1.28565 2.29579,-2.47946 l -7.71386,-24.97821 c 0.64282,0.2755 1.19381,0.55099 1.83663,0.82649 0.0918,0 0.18367,0.0918 0.18367,0.0918 7.07103,3.67326 15.51955,11.66262 20.75395,29.38613 6.79555,22.77425 23.69257,20.0193 27.825,19.28465 10.37697,-1.83664 11.57078,-11.75445 5.60173,-17.17252 z m 6.15272,-34.62054 -2.75495,-3.67326 c -0.55099,0.0918 -1.01015,0.0918 -1.37748,0.0918 -0.18366,0 -3.30594,0 -6.06089,-1.01015 -0.64282,0.45916 -1.4693,0.73465 -2.47945,0.91832 l 2.47945,4.59158 c 2.20396,1.46931 4.77525,2.29579 7.16287,2.29579 3.21411,0 4.49975,-1.83663 2.66312,-3.4896 0,0 0.18366,0.18366 0.36733,0.27549 z m -48.94628,45.45667 c -0.55099,0.36733 -1.10198,0.73466 -1.65297,0.91832 l -0.0918,0.0918 h -0.0918 c -0.73465,0.2755 -1.46931,0.36733 -2.20396,0.36733 h -0.55099 v 0.0918 l -0.73465,0.2755 h -0.0918 l -0.2755,0.27549 3.7651,14.41757 c 0.82648,0.73465 1.7448,1.01015 2.84678,0.64282 1.92846,-0.82648 3.03044,-3.03044 2.38762,-6.88737 z m 108.36136,-50.32375 c -1.01015,0.73466 -2.29579,1.10198 -3.85693,1.19382 h -0.91831 c -2.0203,0 -4.22426,-0.36733 -6.33639,-1.01015 -0.0918,0.0918 -0.18366,0.27549 -0.27549,0.36732 l 8.08118,5.60174 c 2.29579,0.55099 4.59158,0.73465 5.69356,0.73465 2.66312,-0.18366 5.32624,-1.46931 3.30594,-3.30594 z m -114.8814,52.98687 c -0.73466,0.45916 -1.56114,0.82649 -2.47946,1.01015 -0.45916,0.0918 -0.82648,0.18366 -1.19381,0.18366 h -0.18366 c -0.36733,0 -0.73466,-0.0918 -1.19382,-0.18366 -0.0918,0 -0.0918,0 -0.18366,0.0918 l -0.45916,0.0918 2.93862,15.0604 c 0.91831,1.01014 2.02029,1.4693 2.66311,1.28564 1.65297,-0.36733 3.21411,-2.29579 2.93862,-6.15272 z m 67.12894,-48.21162 -2.75495,-3.39777 c -0.82649,0.18366 -1.56114,0.18366 -1.92847,0.18366 -1.10198,0 -4.13242,-0.27549 -6.79554,-1.4693 -0.45916,0.36732 -1.01015,0.55099 -1.56114,0.73465 l 4.40792,5.87723 c 1.56114,0.73465 3.21411,1.19381 4.86708,1.19381 2.38762,0 6.15272,-0.91832 3.39777,-3.39777 0.0918,0.0918 0.2755,0.18366 0.36733,0.27549 z m 20.93762,-3.12228 c -0.55099,0.0918 -1.01015,0.0918 -1.28565,0.0918 -2.38762,0 -5.05074,-0.18367 -7.89752,-1.28565 -0.36733,0.36733 -0.91832,0.55099 -1.46931,0.73466 l 6.61188,5.69356 c 1.92847,0.55099 3.7651,0.73465 4.68342,0.73465 2.57129,0 5.05074,-1.28564 4.40792,-2.57128 z m 14.32574,-0.27549 c -0.73466,0.36733 -1.65297,0.64282 -2.66312,0.73465 h -1.46931 c -3.03044,0 -5.5099,-0.64282 -7.43836,-1.4693 -0.36733,0.27549 -0.73466,0.45915 -1.10198,0.55099 l 8.26485,5.5099 c 2.20396,0.55099 4.40792,0.73465 5.32623,0.73465 2.84678,0 5.05074,-1.56114 3.21411,-3.12228 0.2755,0.0918 0.45916,0.2755 0.73465,0.36733 z m -26.53935,0.18366 c -0.36733,0.0918 -0.82649,0.0918 -1.28565,0.0918 -0.91831,0 -4.40792,-0.0918 -7.62202,-1.28564 -0.36733,0.2755 -0.73466,0.45916 -1.19382,0.64282 l 4.49975,5.60173 c 1.65297,0.73466 3.30594,1.10198 4.68342,1.10198 3.30594,0 6.33638,-0.64282 5.41807,-2.29579 z m 100.18834,-33.0594 c -0.0918,0.82649 -0.36733,1.65297 -0.82649,2.20396 l -0.0918,0.0918 -0.0918,0.0918 c -0.91832,1.10198 -2.11213,1.83663 -3.4896,2.20396 l 19.46831,4.49975 c 1.83663,-0.2755 3.39777,-1.19381 4.40792,-2.29579 1.19381,-1.28565 0.73465,-2.84678 -0.2755,-3.94876 z M 51.232041,129.02521 c -1.744802,-0.82649 -2.846781,-2.11213 -3.397771,-3.4896 -0.275495,-0.45916 -0.367327,-1.01015 -0.367327,-1.56114 l -16.713363,1.28564 c -2.020296,0.82649 -3.30594,3.30594 -1.928465,5.14257 1.010149,1.10198 2.203961,1.74481 3.489604,2.11213 l 18.733659,-2.75495 c 0.09183,-0.27549 0.09183,-0.45916 0.183663,-0.73465 z m 76.954939,16.89703 c -1.46931,1.28564 -1.83663,2.84678 1.10198,3.67326 0.27549,0.0918 0.64282,0.0918 1.01015,0.0918 0.91831,0 2.11213,-0.18366 3.21411,-0.45915 l 47.84429,-25.71287 c -0.82648,-0.36733 -1.65297,-0.73465 -2.38762,-1.19381 z m 28.46781,4.86707 c -0.18366,0.91832 0.55099,1.7448 1.92847,2.11213 0.36733,0.0918 0.82648,0.0918 1.19381,0.0918 1.19381,0 2.38762,-0.27549 3.58144,-0.73465 l -0.0918,-0.0918 28.37599,-25.25371 c -0.82649,-0.18366 -1.56114,-0.36732 -2.38763,-0.64282 z m -20.0193,-2.02029 c -0.45916,0.91831 0.0918,1.92846 1.19381,2.38762 0.64283,0.27549 1.37748,0.36733 2.11213,0.36733 1.01015,0 2.11213,-0.18367 3.21411,-0.55099 l 41.41608,-26.08019 c -0.73465,-0.2755 -1.37748,-0.55099 -2.0203,-0.82649 z m 9.73416,1.37747 c -0.45916,1.10198 0,2.11213 1.65297,2.20396 h 0.55099 c 2.20396,0 4.31609,-0.64282 6.15272,-1.37747 l 33.42672,-24.97821 c -0.82648,-0.2755 -1.56113,-0.45916 -2.29579,-0.73466 z M 110.64713,136.8309 c -2.75495,1.37748 -5.14258,3.30594 -0.55099,5.5099 0.36732,0.18366 2.38762,0.36733 5.60173,0.55099 l 59.32326,-23.04975 c -0.64283,-0.45915 -1.19382,-0.82648 -1.74481,-1.28564 z m -7.2547,-6.88737 c -2.11213,0.91831 -3.856933,2.93861 -2.57129,4.86707 1.19381,1.74481 2.93861,2.20396 4.95891,2.20396 h 0.82648 l 65.65965,-19.10098 c -0.73466,-0.55099 -1.37748,-1.19381 -2.0203,-1.7448 z m -30.120791,17.63168 c 1.469307,1.28564 3.489603,1.83663 5.969058,1.83663 0.91832,0 1.83663,-0.0918 2.84678,-0.2755 l 22.957923,-8.08118 c -0.18367,-0.45916 -0.18367,-0.82649 -0.18367,-1.28565 v -0.0918 c -2.29579,-0.18366 -4.04059,-1.01015 -5.418063,-2.47945 l -26.906681,8.26485 c -0.367327,0.82648 0.09183,1.56114 0.734653,2.11213 z m 13.040098,6.52004 c 1.37747,0 2.84678,-0.18366 4.22425,-0.45916 l 19.651983,-8.44851 c -0.82649,-0.0918 -1.01015,-0.27549 -1.28564,-0.36732 -1.65297,-0.82649 -2.84679,-1.74481 -3.48961,-2.75495 l -24.059893,8.44851 c -0.55099,0.82648 -0.55099,1.65297 0.27549,2.38762 0.91832,0.82649 2.66312,1.19381 4.68342,1.19381 z m 10.65247,-30.7636 c -1.46931,0.91831 -2.47945,2.11213 -2.11213,3.21411 0.82649,2.11212 2.47946,2.93861 4.31609,3.2141 l 70.159393,-14.5094 c -0.64282,-0.64282 -1.28564,-1.28564 -1.7448,-1.92846 z m -32.69207,19.56014 c 0.918316,0.64282 2.846781,1.46931 5.693563,1.46931 1.285643,0 2.663118,-0.18367 4.224256,-0.55099 -0.183663,0.0918 -0.367327,0.18366 -0.459158,0.18366 l 24.794549,-7.62203 c -0.82649,-1.19381 -1.19381,-2.66312 -0.82649,-4.04059 h -0.0918 l -33.794049,7.34653 c -1.010148,1.10198 -0.367326,2.57129 0.459159,3.21411 z m 148.399973,8.26485 c 0.18366,0.91832 1.28564,1.37747 2.84678,1.37747 1.65297,0 3.39777,-0.91831 4.49975,-1.92846 l 5.69356,-21.58044 h -4.59158 z m 16.98885,-3.39777 -0.82648,3.4896 c 0.55099,-0.18366 1.19381,-0.45916 1.65297,-0.73465 -0.36733,-0.91832 -0.55099,-1.83663 -0.82649,-2.75495 z m -62.53736,2.38762 c -1.19381,1.56114 0,3.12228 2.0203,3.12228 h 0.18366 c 1.65297,0 3.12228,-0.36733 4.40792,-1.01015 l 22.49876,-24.42722 c -1.10198,-0.18367 -2.11213,-0.36733 -3.21411,-0.64282 z m 47.10964,11.20346 c 1.83664,0 3.58144,-0.73465 4.59159,-1.7448 l 1.4693,-5.2344 c -0.0918,-0.0918 -0.27549,-0.18367 -0.36732,-0.18367 -1.37748,0.73466 -2.93862,1.28565 -4.40792,1.28565 -1.19381,0 -2.11213,-0.18367 -2.84678,-0.45916 l -1.65297,5.2344 c 0.64282,0.73466 2.20396,1.10198 3.2141,1.10198 z m 8.99951,0.45916 c 1.37747,0 4.13242,-0.64282 5.41807,-2.11213 l 1.65297,-6.15272 c -2.2958,0.91832 -5.05075,1.56114 -6.70372,1.56114 -0.91831,0 -1.65297,-0.0918 -2.29579,-0.36733 l -1.56114,5.60174 c 0.64283,1.01014 2.38763,1.4693 3.48961,1.4693 z m -2.20396,-10.56064 c 0.36732,0.73465 1.19381,1.10198 2.57128,1.10198 1.10198,0 2.66312,-0.27549 4.13243,-0.73465 l 1.46931,-6.15272 c -0.36733,-2.0203 -0.55099,-4.0406 -0.55099,-6.06089 0,-3.48961 0.45915,-6.88738 1.4693,-10.19332 h -3.30594 z m -35.17153,-0.73465 c 0.45916,-0.36733 0.82649,-0.64282 1.19381,-0.91832 -1.28564,1.19381 0.18367,3.12228 1.74481,3.12228 1.83663,0 3.94876,-0.73466 5.78539,-1.83664 l 12.48911,-21.85593 c -1.46931,-0.0918 -2.93862,-0.18366 -4.31609,-0.2755 z m 18.45817,0.55099 c 0.27549,0.91831 1.7448,1.37747 2.75495,1.37747 1.7448,0 3.4896,-0.64282 4.68341,-1.56114 l 8.35668,-21.7641 h -5.32624 z m -27.45767,-0.73466 c 0.27549,-0.27549 0.64282,-0.45915 0.91832,-0.73465 -1.28565,1.19381 -1.01015,3.30594 1.92846,3.30594 1.37748,0 2.66312,-0.45916 3.94876,-1.01015 l 17.99901,-23.32524 c -1.46931,-0.18366 -2.84678,-0.36733 -4.22426,-0.55099 z m 31.3146,-21.30494 -12.76461,22.40692 c 0.0918,0.91832 1.28565,1.28565 2.2958,1.28565 1.65297,0 3.76509,-0.55099 5.41806,-1.65297 l 10.46881,-21.94777 h -1.56113 c -1.28565,0 -2.57129,0 -3.85693,-0.0918 z m -91.55617,14.60123 c -1.10198,1.46931 1.10198,2.84679 4.13243,3.39778 0.55099,0.0918 1.10198,0.18366 1.65296,0.18366 h 0.64283 l 54.8235,-25.5292 c -0.64282,-0.36733 -1.28565,-0.73466 -1.83664,-1.10198 z m 115.70789,17.99901 c 0.55099,0 2.29579,-1.01015 3.12228,-1.28564 -1.65297,-2.20396 -2.93861,-4.59159 -4.04059,-7.16287 l -1.92847,7.34653 c 0.64282,0.82648 2.0203,1.10198 2.84678,1.10198 z M 90.168667,119.10739 c 1.01015,2.20396 3.30594,3.12228 5.41807,3.39777 l 71.261373,-10.10148 c -0.45916,-0.64282 -0.91832,-1.28564 -1.28564,-1.83663 l -72.822523,4.59158 c -2.02029,0.55099 -3.4896,1.83663 -2.57128,3.94876 z m 2.84678,-5.14257 71.996033,-4.49975 c -1.01015,-1.74481 -1.46931,-3.03045 -1.46931,-3.21411 l -0.2755,-0.82649 H 89.158517 c -0.91832,2.57129 -1.37748,3.67327 -1.19381,4.68342 0.27549,2.11213 2.66312,3.30594 5.05074,3.85693 z m 136.645513,49.86459 c -0.45915,-0.18366 -0.91831,-0.36733 -1.28564,-0.64282 -1.83663,0.91831 -3.94876,1.28564 -5.14257,1.28564 -1.37748,0 -3.03045,-0.36733 -4.31609,-1.19381 l -1.7448,6.33638 c 0.55099,0.55099 1.37747,0.82649 2.20396,0.91832 3.12227,-2.29579 6.70371,-4.77525 10.28514,-6.70371 z m -13.22376,3.85693 1.19382,-4.22426 c -1.01015,0.36733 -2.11213,0.55099 -3.30594,0.55099 -0.64283,0 -2.66312,-0.0918 -4.13243,-1.19381 -0.18366,0.0918 -0.45916,0.18366 -0.64282,0.2755 l -2.0203,6.42821 c 0.73466,0.64282 1.92847,1.01015 2.84679,1.01015 1.28564,0.0918 4.31608,-1.01015 6.06088,-2.84678 z m -17.08068,2.66312 c 2.93861,0 6.24455,-1.37748 7.53019,-3.12228 l 1.10198,-3.58143 c -1.10198,0.27549 -2.02029,0.36732 -2.75495,0.36732 -1.7448,0 -3.21411,-0.45916 -4.31609,-1.19381 -0.45915,0.18366 -0.91831,0.36733 -1.28564,0.45916 l -2.84678,5.60173 c 0.27549,1.01015 1.46931,1.46931 2.57129,1.46931 z M 44.711993,114.60764 c 0.09183,-0.2755 0.275495,-0.55099 0.367327,-0.82649 -0.826485,-1.01014 -1.561138,-2.38762 -1.836633,-4.40792 v -0.45915 c 0,-1.37748 0.367326,-2.47946 0.918316,-3.39778 H 22.396899 c 0,0 -1.10198,1.28565 -0.642821,4.86708 0.275494,2.38763 1.561138,4.13243 3.489603,5.14258 z m 3.030445,7.62203 c -2.020297,-1.19381 -2.846782,-2.84678 -3.122276,-3.58144 -0.275495,-0.73465 -0.367327,-1.7448 -0.275495,-2.75495 l -17.448017,0.73466 c -2.020296,0.82648 -3.122276,2.84678 -2.387623,4.68341 0.459159,1.19381 1.744802,2.29579 3.214108,3.03045 l 19.743808,-1.56114 c 0.183663,-0.2755 0.183663,-0.45916 0.275495,-0.55099 z m 1.285643,-9.09134 36.365336,-1.83663 c -0.0918,-0.2755 -0.18366,-0.55099 -0.18366,-0.82649 -0.18367,-1.4693 0.18366,-2.75495 0.82648,-4.59158 0.0918,-0.18366 0.0918,-0.27549 0.18367,-0.45916 H 48.017933 c -1.010148,0.45916 -2.112128,1.46931 -2.112128,3.39777 0.183663,1.10198 0.459158,3.58144 3.122276,4.31609 z m 42.334396,43.71187 c 0.73465,0.36733 1.65297,0.45916 2.75495,0.45916 1.28564,0 2.75495,-0.27549 4.31609,-0.64282 l 17.172523,-8.72401 c -0.91831,-0.64282 -1.56114,-1.4693 -1.83663,-2.38762 -0.64283,0 -1.10199,-0.0918 -1.56114,-0.0918 l -21.121293,9.09133 c -0.64282,0.91832 -0.55099,1.7448 0.2755,2.29579 z M 48.38526,114.24031 c -1.469307,1.01015 -1.561139,2.57129 -1.193812,3.48961 0.367327,1.01014 1.469307,2.66311 4.683415,2.84678 l 35.355184,-3.03045 c 0,-0.73465 0.2755,-1.4693 0.64283,-2.11213 0.0918,-0.18366 0.18366,-0.36732 0.36732,-0.55099 -1.01015,-0.64282 -1.7448,-1.4693 -2.29579,-2.57128 z m 140.13512,56.38464 c 2.66312,0 5.32624,-1.28564 7.2547,-2.75495 l 2.11213,-4.13242 c -0.82649,0.18366 -1.46931,0.18366 -1.92847,0.18366 -0.36732,0 -2.66311,0 -4.31608,-1.19381 -0.73466,0.36733 -1.65297,0.64282 -2.66312,0.82648 l -3.12228,5.7854 c 0.45916,0.73465 1.56114,1.28564 2.66312,1.28564 z m -41.32425,-10.19331 8.63218,-5.7854 c -0.36733,-0.18366 -0.64282,-0.45916 -0.91832,-0.73465 -1.83663,0.73465 -4.04059,1.28564 -6.42821,1.28564 h -0.64283 c -0.64282,0 -1.19381,-0.0918 -1.65297,-0.27549 l -8.63217,5.96906 c 0.55099,0.45915 1.7448,0.73465 2.75495,0.73465 2.38762,-0.18366 4.68341,-0.36733 6.88737,-1.19381 z m -19.7438,1.37747 h 1.28564 c 4.31609,0 7.34653,-1.4693 9.64232,-3.03044 -0.36732,0.18366 -0.55099,0.45916 -0.73465,0.64282 l 7.62203,-5.23441 c -0.36733,-0.27549 -0.64282,-0.55099 -0.91832,-0.82648 -1.4693,0.45916 -2.93861,0.73465 -4.31609,0.73465 -1.10198,0 -2.20396,-0.18366 -3.12227,-0.55099 h -0.0918 c -0.18367,-0.0918 -0.2755,-0.18366 -0.45916,-0.18366 l -11.20347,7.07104 c 0.18367,0.82648 1.10198,1.37747 2.2958,1.37747 z m -25.07005,-2.47945 c 0.73465,0.18366 1.56114,0.27549 2.57129,0.27549 2.38762,0 5.41806,-0.55099 7.71385,-1.4693 l 13.0401,-7.43837 c -0.36732,-0.27549 -0.55099,-0.64282 -0.73465,-0.91832 -0.82648,0.18367 -1.65297,0.2755 -2.47945,0.2755 -0.73466,0 -1.46931,-0.0918 -2.20396,-0.18366 -1.37748,-0.2755 -2.66312,-0.64282 -3.58144,-1.19381 l -15.61138,7.98935 c -1.01015,1.01015 -0.64283,2.0203 1.28564,2.66312 z m 13.86658,1.65297 h 0.73466 c 3.4896,0 7.16287,-1.19381 9.55049,-2.57129 -0.18366,0.0918 -0.36733,0.2755 -0.55099,0.36733 l 9.36683,-5.96906 c -0.36733,-0.2755 -0.64282,-0.64282 -0.91832,-1.01015 -1.37747,0.36733 -2.84678,0.64282 -4.13242,0.64282 -0.55099,0 -1.01015,0 -1.46931,-0.0918 h -0.18366 c -0.91832,-0.27549 -1.56114,-0.55099 -2.11213,-0.91832 l -13.3156,7.62203 c -0.18366,1.01015 0.91833,1.83664 3.03045,1.92847 z m 59.59875,0.0918 c 1.19381,0 4.13243,-0.2755 5.87723,-1.19381 l 4.13242,-5.32624 c -0.18366,-0.0918 -0.36732,-0.27549 -0.45916,-0.36733 -1.56113,0.82649 -3.58143,1.56114 -5.69356,1.56114 -1.37747,0 -2.47945,-0.36732 -3.39777,-0.91831 l -3.7651,4.68341 c -0.0918,1.01015 1.65297,1.56114 3.30594,1.56114 z m 10.83614,0 c 2.02029,0 3.58143,-0.55099 4.86707,-1.37748 l 2.84679,-5.14257 c -0.0918,-0.0918 -0.2755,-0.18366 -0.36733,-0.27549 -1.7448,0.73465 -3.58144,1.19381 -5.2344,1.19381 -0.73466,0 -1.37748,-0.18367 -2.0203,-0.45916 l -3.7651,4.95891 c 0.2755,0.82648 1.92847,1.10198 3.67327,1.10198 z m -34.16138,0.36733 c 1.46931,0 5.14257,-0.2755 7.80569,-1.56114 l 5.5099,-4.68342 c -0.27549,-0.18366 -0.55099,-0.45916 -0.82648,-0.64282 -1.74481,0.73465 -3.58144,1.19381 -5.23441,1.19381 -0.55099,0 -1.10198,0 -1.65297,-0.0918 h -0.0918 c -0.45916,-0.0918 -0.82649,-0.18366 -1.19381,-0.36733 l -7.2547,4.86708 c -0.0918,0.82649 1.4693,1.28565 2.93861,1.28565 z m 12.12178,-0.0918 c 1.28564,0 3.85693,-0.36732 5.96906,-1.37747 l 4.22425,-5.23441 c -1.83663,0.82649 -3.67326,1.28565 -5.60173,1.28565 h -0.18366 c -0.73466,0 -1.46931,-0.18367 -2.11213,-0.36733 l -5.41807,4.59158 c 0.36733,0.73466 1.92847,1.10198 3.12228,1.10198 z"
   id="path56"
   style="stroke-width:0.918317" />
</svg>
